<mxfile host="Electron" agent="Mozilla/5.0 (Windows NT 10.0; Win64; x64) AppleWebKit/537.36 (KHTML, like Gecko) draw.io/26.0.9 Chrome/128.0.6613.186 Electron/32.2.5 Safari/537.36" version="26.0.9">
  <diagram name="Page-1" id="SDamau4mZ8k54Pewyqb_">
    <mxGraphModel dx="1803" dy="2209" grid="1" gridSize="10" guides="1" tooltips="1" connect="1" arrows="1" fold="1" page="1" pageScale="1" pageWidth="827" pageHeight="1169" math="0" shadow="0">
      <root>
        <mxCell id="0" />
        <mxCell id="1" parent="0" />
        <mxCell id="LRw8RilUt3pYmWFIR5ii-178" value="" style="rounded=0;whiteSpace=wrap;html=1;dashed=1;" parent="1" vertex="1">
          <mxGeometry x="327.5" y="-810" width="2152.5" height="1330" as="geometry" />
        </mxCell>
        <mxCell id="LRw8RilUt3pYmWFIR5ii-112" value="" style="rounded=0;whiteSpace=wrap;html=1;dashed=1;" parent="1" vertex="1">
          <mxGeometry x="1230" y="670" width="1650" height="820" as="geometry" />
        </mxCell>
        <mxCell id="LRw8RilUt3pYmWFIR5ii-117" value="" style="rounded=0;whiteSpace=wrap;html=1;dashed=1;fillColor=#dae8fc;strokeColor=#6c8ebf;" parent="1" vertex="1">
          <mxGeometry x="1250" y="950" width="1590" height="520" as="geometry" />
        </mxCell>
        <mxCell id="LRw8RilUt3pYmWFIR5ii-132" value="" style="rounded=0;whiteSpace=wrap;html=1;dashed=1;fillColor=none;dashPattern=8 8;" parent="1" vertex="1">
          <mxGeometry x="1380" y="880" width="860" height="280" as="geometry" />
        </mxCell>
        <mxCell id="LRw8RilUt3pYmWFIR5ii-107" value="" style="rounded=0;whiteSpace=wrap;html=1;dashed=1;" parent="1" vertex="1">
          <mxGeometry x="103.96" y="775" width="965" height="680" as="geometry" />
        </mxCell>
        <mxCell id="LRw8RilUt3pYmWFIR5ii-2" value="Telenor" style="ellipse;shape=cloud;whiteSpace=wrap;html=1;" parent="1" vertex="1">
          <mxGeometry x="1338.96" y="-510" width="120" height="80" as="geometry" />
        </mxCell>
        <mxCell id="LRw8RilUt3pYmWFIR5ii-3" value="NordVPN" style="ellipse;shape=cloud;whiteSpace=wrap;html=1;" parent="1" vertex="1">
          <mxGeometry x="1588.96" y="-430" width="120" height="80" as="geometry" />
        </mxCell>
        <mxCell id="LRw8RilUt3pYmWFIR5ii-13" value="" style="rounded=0;whiteSpace=wrap;html=1;dashed=1;fillColor=#dae8fc;strokeColor=#6c8ebf;" parent="1" vertex="1">
          <mxGeometry x="1048.96" y="-130" width="760" height="190" as="geometry" />
        </mxCell>
        <mxCell id="LRw8RilUt3pYmWFIR5ii-4" value="" style="rounded=0;whiteSpace=wrap;html=1;dashed=1;fillColor=none;" parent="1" vertex="1">
          <mxGeometry x="1568.96" y="-220" width="290" height="310" as="geometry" />
        </mxCell>
        <mxCell id="LRw8RilUt3pYmWFIR5ii-5" value="Slave02" style="rounded=0;whiteSpace=wrap;html=1;dashed=1;" parent="1" vertex="1">
          <mxGeometry x="1628.96" y="-100" width="120" height="130" as="geometry" />
        </mxCell>
        <mxCell id="LRw8RilUt3pYmWFIR5ii-7" value="VLan 3&lt;div&gt;VPN&lt;/div&gt;" style="text;html=1;align=center;verticalAlign=middle;whiteSpace=wrap;rounded=0;" parent="1" vertex="1">
          <mxGeometry x="1578.96" y="-210" width="60" height="30" as="geometry" />
        </mxCell>
        <mxCell id="LRw8RilUt3pYmWFIR5ii-9" value="Cilium&lt;br&gt;EGW" style="rounded=0;whiteSpace=wrap;html=1;" parent="1" vertex="1">
          <mxGeometry x="1698.96" y="-95" width="40" height="40" as="geometry" />
        </mxCell>
        <mxCell id="LRw8RilUt3pYmWFIR5ii-12" value="&lt;h1 style=&quot;margin-top: 0px;&quot;&gt;&lt;span style=&quot;background-color: transparent; color: light-dark(rgb(0, 0, 0), rgb(255, 255, 255));&quot;&gt;Legenda&lt;/span&gt;&lt;/h1&gt;&lt;h1 style=&quot;margin-top: 0px;&quot;&gt;&lt;span style=&quot;background-color: transparent; color: light-dark(rgb(0, 0, 0), rgb(255, 255, 255)); font-size: 12px; font-weight: normal;&quot;&gt;Cilium EGW - Cilium Egress Gateway&lt;/span&gt;&lt;/h1&gt;&lt;div&gt;&lt;span style=&quot;background-color: transparent; color: light-dark(rgb(0, 0, 0), rgb(255, 255, 255)); font-size: 12px; font-weight: normal;&quot;&gt;&lt;br&gt;&lt;/span&gt;&lt;/div&gt;&lt;div&gt;&lt;span style=&quot;background-color: transparent; color: light-dark(rgb(0, 0, 0), rgb(255, 255, 255)); font-size: 12px; font-weight: normal;&quot;&gt;&lt;br&gt;&lt;/span&gt;&lt;/div&gt;&lt;div&gt;&lt;span style=&quot;background-color: transparent; color: light-dark(rgb(0, 0, 0), rgb(255, 255, 255));&quot;&gt;&lt;b style=&quot;&quot;&gt;&lt;font style=&quot;font-size: 26px;&quot;&gt;Machine Types&lt;/font&gt;&lt;/b&gt;&lt;/span&gt;&lt;/div&gt;&lt;div&gt;&lt;span style=&quot;background-color: transparent; color: light-dark(rgb(0, 0, 0), rgb(255, 255, 255));&quot;&gt;&lt;b style=&quot;&quot;&gt;&lt;font style=&quot;font-size: 26px;&quot;&gt;&lt;br&gt;&lt;/font&gt;&lt;/b&gt;&lt;/span&gt;&lt;/div&gt;&lt;div&gt;&lt;span style=&quot;background-color: transparent; color: light-dark(rgb(0, 0, 0), rgb(255, 255, 255));&quot;&gt;&lt;b style=&quot;&quot;&gt;&lt;font style=&quot;font-size: 26px;&quot;&gt;&lt;br&gt;&lt;/font&gt;&lt;/b&gt;&lt;/span&gt;&lt;/div&gt;&lt;div&gt;&lt;span style=&quot;background-color: transparent; color: light-dark(rgb(0, 0, 0), rgb(255, 255, 255));&quot;&gt;&lt;b style=&quot;&quot;&gt;&lt;font style=&quot;font-size: 26px;&quot;&gt;&lt;br&gt;&lt;/font&gt;&lt;/b&gt;&lt;/span&gt;&lt;/div&gt;&lt;div&gt;&lt;span style=&quot;background-color: transparent; color: light-dark(rgb(0, 0, 0), rgb(255, 255, 255));&quot;&gt;&lt;b style=&quot;&quot;&gt;&lt;font style=&quot;font-size: 26px;&quot;&gt;&lt;br&gt;&lt;/font&gt;&lt;/b&gt;&lt;/span&gt;&lt;/div&gt;&lt;div&gt;&lt;span style=&quot;background-color: transparent; color: light-dark(rgb(0, 0, 0), rgb(255, 255, 255));&quot;&gt;&lt;b style=&quot;&quot;&gt;&lt;font style=&quot;font-size: 26px;&quot;&gt;&lt;br&gt;&lt;/font&gt;&lt;/b&gt;&lt;/span&gt;&lt;/div&gt;&lt;div&gt;&lt;h1 style=&quot;margin-top: 0px;&quot;&gt;Global Routing Rules&lt;/h1&gt;&lt;/div&gt;&lt;div&gt;&lt;b&gt;&lt;font style=&quot;font-size: 18px;&quot;&gt;Routing FQDN&lt;/font&gt;&lt;/b&gt;&lt;/div&gt;&lt;div&gt;&lt;div&gt;&lt;font style=&quot;font-size: 15px;&quot;&gt;netflix.com&lt;/font&gt;&lt;/div&gt;&lt;/div&gt;&lt;div&gt;&lt;font style=&quot;font-size: 15px;&quot;&gt;&lt;br&gt;&lt;/font&gt;&lt;/div&gt;&lt;div&gt;&lt;font style=&quot;font-size: 15px;&quot;&gt;&lt;b&gt;Everything Else&lt;/b&gt;&lt;/font&gt;&lt;/div&gt;&lt;div&gt;&lt;span style=&quot;font-size: 15px;&quot;&gt;Telenor&amp;nbsp;&lt;/span&gt;&lt;/div&gt;" style="text;html=1;whiteSpace=wrap;overflow=hidden;rounded=0;" parent="1" vertex="1">
          <mxGeometry x="1958.66" y="-220" width="330" height="590" as="geometry" />
        </mxCell>
        <mxCell id="LRw8RilUt3pYmWFIR5ii-14" value="" style="rounded=0;whiteSpace=wrap;html=1;dashed=1;fillColor=none;" parent="1" vertex="1">
          <mxGeometry x="888.96" y="-220" width="640" height="300" as="geometry" />
        </mxCell>
        <mxCell id="LRw8RilUt3pYmWFIR5ii-15" value="VLan 5&lt;div&gt;K8S&lt;/div&gt;" style="text;html=1;align=center;verticalAlign=middle;whiteSpace=wrap;rounded=0;" parent="1" vertex="1">
          <mxGeometry x="1178.96" y="-210" width="60" height="30" as="geometry" />
        </mxCell>
        <mxCell id="LRw8RilUt3pYmWFIR5ii-16" value="Slave01" style="rounded=0;whiteSpace=wrap;html=1;dashed=1;" parent="1" vertex="1">
          <mxGeometry x="1378.96" y="-100" width="120" height="130" as="geometry" />
        </mxCell>
        <mxCell id="LRw8RilUt3pYmWFIR5ii-17" value="Master" style="rounded=0;whiteSpace=wrap;html=1;dashed=1;" parent="1" vertex="1">
          <mxGeometry x="1238.96" y="-100" width="120" height="130" as="geometry" />
        </mxCell>
        <mxCell id="LRw8RilUt3pYmWFIR5ii-18" value="PI" style="rounded=0;whiteSpace=wrap;html=1;" parent="1" vertex="1">
          <mxGeometry x="1096.3000000000002" y="-100" width="120" height="130" as="geometry" />
        </mxCell>
        <mxCell id="LRw8RilUt3pYmWFIR5ii-20" style="edgeStyle=orthogonalEdgeStyle;rounded=0;orthogonalLoop=1;jettySize=auto;html=1;" parent="1" source="LRw8RilUt3pYmWFIR5ii-19" target="LRw8RilUt3pYmWFIR5ii-16" edge="1">
          <mxGeometry relative="1" as="geometry" />
        </mxCell>
        <mxCell id="LRw8RilUt3pYmWFIR5ii-23" style="edgeStyle=orthogonalEdgeStyle;rounded=0;orthogonalLoop=1;jettySize=auto;html=1;" parent="1" source="LRw8RilUt3pYmWFIR5ii-19" target="LRw8RilUt3pYmWFIR5ii-5" edge="1">
          <mxGeometry relative="1" as="geometry" />
        </mxCell>
        <mxCell id="LRw8RilUt3pYmWFIR5ii-24" style="edgeStyle=orthogonalEdgeStyle;rounded=0;orthogonalLoop=1;jettySize=auto;html=1;" parent="1" source="LRw8RilUt3pYmWFIR5ii-19" target="LRw8RilUt3pYmWFIR5ii-17" edge="1">
          <mxGeometry relative="1" as="geometry" />
        </mxCell>
        <mxCell id="LRw8RilUt3pYmWFIR5ii-27" style="edgeStyle=orthogonalEdgeStyle;rounded=0;orthogonalLoop=1;jettySize=auto;html=1;entryX=0;entryY=0.5;entryDx=0;entryDy=0;" parent="1" source="LRw8RilUt3pYmWFIR5ii-19" target="LRw8RilUt3pYmWFIR5ii-26" edge="1">
          <mxGeometry relative="1" as="geometry" />
        </mxCell>
        <mxCell id="LRw8RilUt3pYmWFIR5ii-28" style="edgeStyle=orthogonalEdgeStyle;rounded=0;orthogonalLoop=1;jettySize=auto;html=1;entryX=0;entryY=0.5;entryDx=0;entryDy=0;" parent="1" source="LRw8RilUt3pYmWFIR5ii-19" target="LRw8RilUt3pYmWFIR5ii-25" edge="1">
          <mxGeometry relative="1" as="geometry" />
        </mxCell>
        <mxCell id="LRw8RilUt3pYmWFIR5ii-19" value="Intel NUC&lt;div&gt;ProxMox&lt;/div&gt;" style="whiteSpace=wrap;html=1;aspect=fixed;" parent="1" vertex="1">
          <mxGeometry x="1288.96" y="190" width="240" height="240" as="geometry" />
        </mxCell>
        <mxCell id="LRw8RilUt3pYmWFIR5ii-25" value="Adguard&lt;div&gt;(DNS)&lt;/div&gt;" style="rounded=0;whiteSpace=wrap;html=1;dashed=1;dashPattern=12 12;" parent="1" vertex="1">
          <mxGeometry x="938.96" y="-100" width="60" height="50" as="geometry" />
        </mxCell>
        <mxCell id="LRw8RilUt3pYmWFIR5ii-26" value="Time" style="rounded=0;whiteSpace=wrap;html=1;dashed=1;dashPattern=12 12;" parent="1" vertex="1">
          <mxGeometry x="938.96" y="-40" width="60" height="50" as="geometry" />
        </mxCell>
        <mxCell id="LRw8RilUt3pYmWFIR5ii-30" value="" style="shape=image;verticalLabelPosition=bottom;labelBackgroundColor=default;verticalAlign=top;aspect=fixed;imageAspect=0;image=https://upload.wikimedia.org/wikipedia/commons/thumb/3/39/Kubernetes_logo_without_workmark.svg/1200px-Kubernetes_logo_without_workmark.svg.png;" parent="1" vertex="1">
          <mxGeometry x="1048.96" y="-130" width="30.87" height="30" as="geometry" />
        </mxCell>
        <mxCell id="LRw8RilUt3pYmWFIR5ii-31" value="Container&lt;div&gt;(ProxMox)&lt;/div&gt;" style="rounded=0;whiteSpace=wrap;html=1;dashed=1;dashPattern=12 12;" parent="1" vertex="1">
          <mxGeometry x="1978.96" y="-40" width="74.67" height="80" as="geometry" />
        </mxCell>
        <mxCell id="LRw8RilUt3pYmWFIR5ii-32" value="Hosts (Whole Computer)" style="rounded=0;whiteSpace=wrap;html=1;" parent="1" vertex="1">
          <mxGeometry x="2068.96" y="-40" width="73.85" height="80" as="geometry" />
        </mxCell>
        <mxCell id="LRw8RilUt3pYmWFIR5ii-33" value="Virtual Machine&lt;div&gt;(ProxMox)&lt;/div&gt;" style="rounded=0;whiteSpace=wrap;html=1;dashed=1;" parent="1" vertex="1">
          <mxGeometry x="2158.96" y="-40" width="71.54" height="77.5" as="geometry" />
        </mxCell>
        <mxCell id="LRw8RilUt3pYmWFIR5ii-35" style="edgeStyle=orthogonalEdgeStyle;rounded=0;orthogonalLoop=1;jettySize=auto;html=1;entryX=0.55;entryY=0.95;entryDx=0;entryDy=0;entryPerimeter=0;" parent="1" source="LRw8RilUt3pYmWFIR5ii-4" target="LRw8RilUt3pYmWFIR5ii-3" edge="1">
          <mxGeometry relative="1" as="geometry" />
        </mxCell>
        <mxCell id="LRw8RilUt3pYmWFIR5ii-36" value="" style="rounded=0;whiteSpace=wrap;html=1;dashed=1;fillColor=none;" parent="1" vertex="1">
          <mxGeometry x="578.96" y="-220" width="270" height="300" as="geometry" />
        </mxCell>
        <mxCell id="LRw8RilUt3pYmWFIR5ii-37" value="VLan 4&lt;div&gt;Offline&lt;/div&gt;" style="text;html=1;align=center;verticalAlign=middle;whiteSpace=wrap;rounded=0;" parent="1" vertex="1">
          <mxGeometry x="683.96" y="-210" width="60" height="30" as="geometry" />
        </mxCell>
        <mxCell id="LRw8RilUt3pYmWFIR5ii-83" style="edgeStyle=orthogonalEdgeStyle;rounded=0;orthogonalLoop=1;jettySize=auto;html=1;" parent="1" source="LRw8RilUt3pYmWFIR5ii-41" target="LRw8RilUt3pYmWFIR5ii-26" edge="1">
          <mxGeometry relative="1" as="geometry" />
        </mxCell>
        <mxCell id="LRw8RilUt3pYmWFIR5ii-41" value="NAS" style="rounded=0;whiteSpace=wrap;html=1;" parent="1" vertex="1">
          <mxGeometry x="653.96" y="-120" width="120" height="130" as="geometry" />
        </mxCell>
        <mxCell id="LRw8RilUt3pYmWFIR5ii-43" value="" style="rounded=0;whiteSpace=wrap;html=1;dashed=1;fillColor=none;" parent="1" vertex="1">
          <mxGeometry x="613.96" y="-600" width="390" height="300" as="geometry" />
        </mxCell>
        <mxCell id="LRw8RilUt3pYmWFIR5ii-44" value="VLan 1&lt;div&gt;Default&lt;/div&gt;" style="text;html=1;align=center;verticalAlign=middle;whiteSpace=wrap;rounded=0;" parent="1" vertex="1">
          <mxGeometry x="663.96" y="-590" width="60" height="30" as="geometry" />
        </mxCell>
        <mxCell id="LRw8RilUt3pYmWFIR5ii-48" value="" style="html=1;verticalLabelPosition=bottom;align=center;labelBackgroundColor=#ffffff;verticalAlign=top;strokeWidth=2;strokeColor=#0080F0;shadow=0;dashed=0;shape=mxgraph.ios7.icons.wifi;pointerEvents=1" parent="1" vertex="1">
          <mxGeometry x="623.96" y="-535.5" width="29.7" height="21" as="geometry" />
        </mxCell>
        <mxCell id="LRw8RilUt3pYmWFIR5ii-49" value="Blizzard Wifi" style="text;html=1;align=center;verticalAlign=middle;whiteSpace=wrap;rounded=0;" parent="1" vertex="1">
          <mxGeometry x="663.96" y="-540" width="60" height="30" as="geometry" />
        </mxCell>
        <mxCell id="LRw8RilUt3pYmWFIR5ii-51" style="edgeStyle=orthogonalEdgeStyle;rounded=0;orthogonalLoop=1;jettySize=auto;html=1;" parent="1" source="LRw8RilUt3pYmWFIR5ii-50" target="LRw8RilUt3pYmWFIR5ii-25" edge="1">
          <mxGeometry relative="1" as="geometry" />
        </mxCell>
        <mxCell id="LRw8RilUt3pYmWFIR5ii-50" value="DNS Config" style="text;html=1;align=center;verticalAlign=middle;whiteSpace=wrap;rounded=0;fillColor=none;strokeColor=default;dashed=1;dashPattern=1 2;" parent="1" vertex="1">
          <mxGeometry x="723.9599999999999" y="-340" width="60" height="30" as="geometry" />
        </mxCell>
        <mxCell id="LRw8RilUt3pYmWFIR5ii-53" style="edgeStyle=orthogonalEdgeStyle;rounded=0;orthogonalLoop=1;jettySize=auto;html=1;" parent="1" source="LRw8RilUt3pYmWFIR5ii-52" target="LRw8RilUt3pYmWFIR5ii-25" edge="1">
          <mxGeometry relative="1" as="geometry" />
        </mxCell>
        <mxCell id="LRw8RilUt3pYmWFIR5ii-52" value="DNS Config" style="text;html=1;align=center;verticalAlign=middle;whiteSpace=wrap;rounded=0;fillColor=none;strokeColor=default;dashed=1;dashPattern=1 2;" parent="1" vertex="1">
          <mxGeometry x="778.9599999999999" y="-210" width="60" height="30" as="geometry" />
        </mxCell>
        <mxCell id="LRw8RilUt3pYmWFIR5ii-55" style="edgeStyle=orthogonalEdgeStyle;rounded=0;orthogonalLoop=1;jettySize=auto;html=1;entryX=0.5;entryY=0;entryDx=0;entryDy=0;" parent="1" source="LRw8RilUt3pYmWFIR5ii-54" target="LRw8RilUt3pYmWFIR5ii-25" edge="1">
          <mxGeometry relative="1" as="geometry" />
        </mxCell>
        <mxCell id="LRw8RilUt3pYmWFIR5ii-54" value="DNS Config" style="text;html=1;align=center;verticalAlign=middle;whiteSpace=wrap;rounded=0;fillColor=none;strokeColor=default;dashed=1;dashPattern=1 2;" parent="1" vertex="1">
          <mxGeometry x="1036.3" y="-210" width="60" height="30" as="geometry" />
        </mxCell>
        <mxCell id="LRw8RilUt3pYmWFIR5ii-58" style="edgeStyle=orthogonalEdgeStyle;rounded=0;orthogonalLoop=1;jettySize=auto;html=1;entryX=0.5;entryY=1;entryDx=0;entryDy=0;" parent="1" source="LRw8RilUt3pYmWFIR5ii-56" target="LRw8RilUt3pYmWFIR5ii-57" edge="1">
          <mxGeometry relative="1" as="geometry" />
        </mxCell>
        <mxCell id="LRw8RilUt3pYmWFIR5ii-56" value="DNS Config" style="text;html=1;align=center;verticalAlign=middle;whiteSpace=wrap;rounded=0;fillColor=none;strokeColor=default;dashed=1;dashPattern=1 2;" parent="1" vertex="1">
          <mxGeometry x="1768.96" y="-210" width="60" height="30" as="geometry" />
        </mxCell>
        <mxCell id="LRw8RilUt3pYmWFIR5ii-57" value="1.1.1.1" style="rounded=0;whiteSpace=wrap;html=1;" parent="1" vertex="1">
          <mxGeometry x="1759.96" y="-400" width="120" height="60" as="geometry" />
        </mxCell>
        <mxCell id="LRw8RilUt3pYmWFIR5ii-59" style="edgeStyle=orthogonalEdgeStyle;rounded=0;orthogonalLoop=1;jettySize=auto;html=1;entryX=0.55;entryY=0.95;entryDx=0;entryDy=0;entryPerimeter=0;" parent="1" source="LRw8RilUt3pYmWFIR5ii-73" target="LRw8RilUt3pYmWFIR5ii-2" edge="1">
          <mxGeometry relative="1" as="geometry">
            <Array as="points">
              <mxPoint x="1404.96" y="-280" />
              <mxPoint x="1404.96" y="-280" />
            </Array>
          </mxGeometry>
        </mxCell>
        <mxCell id="LRw8RilUt3pYmWFIR5ii-60" style="edgeStyle=orthogonalEdgeStyle;rounded=0;orthogonalLoop=1;jettySize=auto;html=1;entryX=0.07;entryY=0.4;entryDx=0;entryDy=0;entryPerimeter=0;" parent="1" source="LRw8RilUt3pYmWFIR5ii-75" target="LRw8RilUt3pYmWFIR5ii-2" edge="1">
          <mxGeometry relative="1" as="geometry" />
        </mxCell>
        <mxCell id="LRw8RilUt3pYmWFIR5ii-61" value="192.168.20.0/24" style="text;html=1;align=center;verticalAlign=middle;whiteSpace=wrap;rounded=0;" parent="1" vertex="1">
          <mxGeometry x="777.96" y="-590" width="60" height="30" as="geometry" />
        </mxCell>
        <mxCell id="LRw8RilUt3pYmWFIR5ii-62" value="192.168.50.0/24" style="text;html=1;align=center;verticalAlign=middle;whiteSpace=wrap;rounded=0;" parent="1" vertex="1">
          <mxGeometry x="1438.96" y="-200" width="60" height="30" as="geometry" />
        </mxCell>
        <mxCell id="LRw8RilUt3pYmWFIR5ii-63" value="192.168.3.0/24" style="text;html=1;align=center;verticalAlign=middle;whiteSpace=wrap;rounded=0;" parent="1" vertex="1">
          <mxGeometry x="1673.96" y="-210" width="60" height="30" as="geometry" />
        </mxCell>
        <mxCell id="LRw8RilUt3pYmWFIR5ii-64" value="192.168.22&lt;span style=&quot;background-color: transparent; color: light-dark(rgb(0, 0, 0), rgb(255, 255, 255));&quot;&gt;.0/24&lt;/span&gt;" style="text;html=1;align=center;verticalAlign=middle;whiteSpace=wrap;rounded=0;" parent="1" vertex="1">
          <mxGeometry x="598.96" y="-210" width="60" height="30" as="geometry" />
        </mxCell>
        <mxCell id="LRw8RilUt3pYmWFIR5ii-65" value="" style="rounded=0;whiteSpace=wrap;html=1;dashed=1;fillColor=none;" parent="1" vertex="1">
          <mxGeometry x="1948.96" y="-640" width="230" height="300" as="geometry" />
        </mxCell>
        <mxCell id="LRw8RilUt3pYmWFIR5ii-66" value="VLan 2&lt;div&gt;IOT&lt;/div&gt;" style="text;html=1;align=center;verticalAlign=middle;whiteSpace=wrap;rounded=0;" parent="1" vertex="1">
          <mxGeometry x="1958.66" y="-630" width="60" height="30" as="geometry" />
        </mxCell>
        <mxCell id="LRw8RilUt3pYmWFIR5ii-67" value="" style="html=1;verticalLabelPosition=bottom;align=center;labelBackgroundColor=#ffffff;verticalAlign=top;strokeWidth=2;strokeColor=#0080F0;shadow=0;dashed=0;shape=mxgraph.ios7.icons.wifi;pointerEvents=1" parent="1" vertex="1">
          <mxGeometry x="1988.96" y="-571" width="29.7" height="21" as="geometry" />
        </mxCell>
        <mxCell id="LRw8RilUt3pYmWFIR5ii-68" value="Blizzard IoT" style="text;html=1;align=center;verticalAlign=middle;whiteSpace=wrap;rounded=0;" parent="1" vertex="1">
          <mxGeometry x="2048.96" y="-575.5" width="110" height="30" as="geometry" />
        </mxCell>
        <mxCell id="LRw8RilUt3pYmWFIR5ii-69" value="192.168.200.0/24" style="text;html=1;align=center;verticalAlign=middle;whiteSpace=wrap;rounded=0;" parent="1" vertex="1">
          <mxGeometry x="2090.5" y="-630" width="60" height="30" as="geometry" />
        </mxCell>
        <mxCell id="LRw8RilUt3pYmWFIR5ii-70" style="edgeStyle=orthogonalEdgeStyle;rounded=0;orthogonalLoop=1;jettySize=auto;html=1;entryX=0.88;entryY=0.25;entryDx=0;entryDy=0;entryPerimeter=0;" parent="1" source="LRw8RilUt3pYmWFIR5ii-72" target="LRw8RilUt3pYmWFIR5ii-2" edge="1">
          <mxGeometry relative="1" as="geometry" />
        </mxCell>
        <mxCell id="LRw8RilUt3pYmWFIR5ii-74" value="" style="edgeStyle=orthogonalEdgeStyle;rounded=0;orthogonalLoop=1;jettySize=auto;html=1;entryX=0.55;entryY=0.95;entryDx=0;entryDy=0;entryPerimeter=0;" parent="1" source="LRw8RilUt3pYmWFIR5ii-14" target="LRw8RilUt3pYmWFIR5ii-73" edge="1">
          <mxGeometry relative="1" as="geometry">
            <mxPoint x="1404.96" y="-220" as="sourcePoint" />
            <mxPoint x="1404.96" y="-434" as="targetPoint" />
            <Array as="points" />
          </mxGeometry>
        </mxCell>
        <mxCell id="LRw8RilUt3pYmWFIR5ii-73" value="" style="image;html=1;image=img/lib/clip_art/networking/Firewall_02_128x128.png" parent="1" vertex="1">
          <mxGeometry x="1288.96" y="-330" width="80" height="80" as="geometry" />
        </mxCell>
        <mxCell id="LRw8RilUt3pYmWFIR5ii-76" value="" style="edgeStyle=orthogonalEdgeStyle;rounded=0;orthogonalLoop=1;jettySize=auto;html=1;entryX=0.07;entryY=0.4;entryDx=0;entryDy=0;entryPerimeter=0;" parent="1" source="LRw8RilUt3pYmWFIR5ii-43" target="LRw8RilUt3pYmWFIR5ii-75" edge="1">
          <mxGeometry relative="1" as="geometry">
            <mxPoint x="1003.96" y="-450" as="sourcePoint" />
            <mxPoint x="1346.96" y="-478" as="targetPoint" />
          </mxGeometry>
        </mxCell>
        <mxCell id="LRw8RilUt3pYmWFIR5ii-75" value="" style="image;html=1;image=img/lib/clip_art/networking/Firewall_02_128x128.png" parent="1" vertex="1">
          <mxGeometry x="1168.96" y="-530" width="80" height="80" as="geometry" />
        </mxCell>
        <mxCell id="LRw8RilUt3pYmWFIR5ii-77" value="" style="edgeStyle=orthogonalEdgeStyle;rounded=0;orthogonalLoop=1;jettySize=auto;html=1;entryX=0.88;entryY=0.25;entryDx=0;entryDy=0;entryPerimeter=0;" parent="1" source="LRw8RilUt3pYmWFIR5ii-65" target="LRw8RilUt3pYmWFIR5ii-72" edge="1">
          <mxGeometry relative="1" as="geometry">
            <mxPoint x="1948.96" y="-490" as="sourcePoint" />
            <mxPoint x="1444.96" y="-490" as="targetPoint" />
          </mxGeometry>
        </mxCell>
        <mxCell id="LRw8RilUt3pYmWFIR5ii-72" value="" style="image;html=1;image=img/lib/clip_art/networking/Firewall_02_128x128.png" parent="1" vertex="1">
          <mxGeometry x="1663.96" y="-535.5" width="80" height="80" as="geometry" />
        </mxCell>
        <mxCell id="LRw8RilUt3pYmWFIR5ii-79" value="" style="html=1;verticalLabelPosition=bottom;align=center;labelBackgroundColor=#ffffff;verticalAlign=top;strokeWidth=2;strokeColor=#0080F0;shadow=0;dashed=0;shape=mxgraph.ios7.icons.wifi;pointerEvents=1" parent="1" vertex="1">
          <mxGeometry x="1578.96" y="-165.5" width="29.7" height="21" as="geometry" />
        </mxCell>
        <mxCell id="LRw8RilUt3pYmWFIR5ii-80" value="Secret Wifi" style="text;html=1;align=center;verticalAlign=middle;whiteSpace=wrap;rounded=0;" parent="1" vertex="1">
          <mxGeometry x="1593.96" y="-170" width="110" height="30" as="geometry" />
        </mxCell>
        <mxCell id="LRw8RilUt3pYmWFIR5ii-85" value="10.10.0.0/16" style="text;html=1;align=center;verticalAlign=middle;whiteSpace=wrap;rounded=0;" parent="1" vertex="1">
          <mxGeometry x="1096.3000000000002" y="-130" width="60" height="30" as="geometry" />
        </mxCell>
        <mxCell id="LRw8RilUt3pYmWFIR5ii-87" value="DNS Resolution" style="text;html=1;align=center;verticalAlign=middle;whiteSpace=wrap;rounded=0;" parent="1" vertex="1">
          <mxGeometry x="411.46" y="795" width="60" height="30" as="geometry" />
        </mxCell>
        <mxCell id="LRw8RilUt3pYmWFIR5ii-92" style="edgeStyle=orthogonalEdgeStyle;rounded=0;orthogonalLoop=1;jettySize=auto;html=1;" parent="1" source="LRw8RilUt3pYmWFIR5ii-88" target="LRw8RilUt3pYmWFIR5ii-90" edge="1">
          <mxGeometry relative="1" as="geometry" />
        </mxCell>
        <mxCell id="LRw8RilUt3pYmWFIR5ii-93" style="edgeStyle=orthogonalEdgeStyle;rounded=0;orthogonalLoop=1;jettySize=auto;html=1;entryX=0.5;entryY=1;entryDx=0;entryDy=0;" parent="1" source="LRw8RilUt3pYmWFIR5ii-88" target="LRw8RilUt3pYmWFIR5ii-91" edge="1">
          <mxGeometry relative="1" as="geometry" />
        </mxCell>
        <mxCell id="LRw8RilUt3pYmWFIR5ii-94" style="edgeStyle=orthogonalEdgeStyle;rounded=0;orthogonalLoop=1;jettySize=auto;html=1;" parent="1" source="LRw8RilUt3pYmWFIR5ii-88" target="LRw8RilUt3pYmWFIR5ii-89" edge="1">
          <mxGeometry relative="1" as="geometry" />
        </mxCell>
        <mxCell id="LRw8RilUt3pYmWFIR5ii-88" value="Adguard" style="rounded=0;whiteSpace=wrap;html=1;" parent="1" vertex="1">
          <mxGeometry x="373.96" y="1045" width="120" height="60" as="geometry" />
        </mxCell>
        <mxCell id="LRw8RilUt3pYmWFIR5ii-89" value="NextDNS" style="rounded=0;whiteSpace=wrap;html=1;" parent="1" vertex="1">
          <mxGeometry x="213.95999999999998" y="885" width="120" height="60" as="geometry" />
        </mxCell>
        <mxCell id="LRw8RilUt3pYmWFIR5ii-90" value="Quay.IO" style="rounded=0;whiteSpace=wrap;html=1;" parent="1" vertex="1">
          <mxGeometry x="373.96" y="885" width="120" height="60" as="geometry" />
        </mxCell>
        <mxCell id="LRw8RilUt3pYmWFIR5ii-91" value="Cloudflare" style="rounded=0;whiteSpace=wrap;html=1;" parent="1" vertex="1">
          <mxGeometry x="538.96" y="885" width="120" height="60" as="geometry" />
        </mxCell>
        <mxCell id="LRw8RilUt3pYmWFIR5ii-100" style="edgeStyle=orthogonalEdgeStyle;rounded=0;orthogonalLoop=1;jettySize=auto;html=1;" parent="1" source="LRw8RilUt3pYmWFIR5ii-95" target="LRw8RilUt3pYmWFIR5ii-88" edge="1">
          <mxGeometry relative="1" as="geometry" />
        </mxCell>
        <mxCell id="LRw8RilUt3pYmWFIR5ii-95" value="Vlan 1&lt;div&gt;(Default)&lt;/div&gt;" style="ellipse;shape=cloud;whiteSpace=wrap;html=1;" parent="1" vertex="1">
          <mxGeometry x="218.95999999999998" y="1135" width="120" height="80" as="geometry" />
        </mxCell>
        <mxCell id="LRw8RilUt3pYmWFIR5ii-106" style="edgeStyle=orthogonalEdgeStyle;rounded=0;orthogonalLoop=1;jettySize=auto;html=1;" parent="1" source="LRw8RilUt3pYmWFIR5ii-96" target="LRw8RilUt3pYmWFIR5ii-88" edge="1">
          <mxGeometry relative="1" as="geometry" />
        </mxCell>
        <mxCell id="LRw8RilUt3pYmWFIR5ii-96" value="Vlan 2&lt;div&gt;(IoT)&lt;/div&gt;" style="ellipse;shape=cloud;whiteSpace=wrap;html=1;" parent="1" vertex="1">
          <mxGeometry x="218.95999999999998" y="1255" width="120" height="80" as="geometry" />
        </mxCell>
        <mxCell id="LRw8RilUt3pYmWFIR5ii-103" style="edgeStyle=orthogonalEdgeStyle;rounded=0;orthogonalLoop=1;jettySize=auto;html=1;entryX=1;entryY=0.5;entryDx=0;entryDy=0;" parent="1" source="LRw8RilUt3pYmWFIR5ii-97" target="LRw8RilUt3pYmWFIR5ii-91" edge="1">
          <mxGeometry relative="1" as="geometry">
            <Array as="points">
              <mxPoint x="678.96" y="1155" />
              <mxPoint x="678.96" y="915" />
            </Array>
          </mxGeometry>
        </mxCell>
        <mxCell id="LRw8RilUt3pYmWFIR5ii-97" value="Vlan 3&lt;br&gt;(VPN)" style="ellipse;shape=cloud;whiteSpace=wrap;html=1;" parent="1" vertex="1">
          <mxGeometry x="618.96" y="1095" width="120" height="80" as="geometry" />
        </mxCell>
        <mxCell id="LRw8RilUt3pYmWFIR5ii-104" style="edgeStyle=orthogonalEdgeStyle;rounded=0;orthogonalLoop=1;jettySize=auto;html=1;" parent="1" source="LRw8RilUt3pYmWFIR5ii-98" target="LRw8RilUt3pYmWFIR5ii-88" edge="1">
          <mxGeometry relative="1" as="geometry" />
        </mxCell>
        <mxCell id="LRw8RilUt3pYmWFIR5ii-98" value="Vlan 4&lt;div&gt;(Offline)&lt;/div&gt;" style="ellipse;shape=cloud;whiteSpace=wrap;html=1;" parent="1" vertex="1">
          <mxGeometry x="508.95999999999987" y="1245" width="120" height="80" as="geometry" />
        </mxCell>
        <mxCell id="LRw8RilUt3pYmWFIR5ii-105" style="edgeStyle=orthogonalEdgeStyle;rounded=0;orthogonalLoop=1;jettySize=auto;html=1;" parent="1" source="LRw8RilUt3pYmWFIR5ii-99" target="LRw8RilUt3pYmWFIR5ii-88" edge="1">
          <mxGeometry relative="1" as="geometry" />
        </mxCell>
        <mxCell id="LRw8RilUt3pYmWFIR5ii-99" value="Vlan 5&lt;div&gt;(K8S)&lt;/div&gt;" style="ellipse;shape=cloud;whiteSpace=wrap;html=1;" parent="1" vertex="1">
          <mxGeometry x="373.96" y="1335" width="120" height="80" as="geometry" />
        </mxCell>
        <mxCell id="LRw8RilUt3pYmWFIR5ii-110" style="edgeStyle=orthogonalEdgeStyle;rounded=0;orthogonalLoop=1;jettySize=auto;html=1;" parent="1" source="LRw8RilUt3pYmWFIR5ii-109" target="LRw8RilUt3pYmWFIR5ii-88" edge="1">
          <mxGeometry relative="1" as="geometry" />
        </mxCell>
        <mxCell id="LRw8RilUt3pYmWFIR5ii-109" value="" style="shape=image;verticalLabelPosition=bottom;labelBackgroundColor=default;verticalAlign=top;aspect=fixed;imageAspect=0;image=https://upload.wikimedia.org/wikipedia/commons/thumb/3/39/Kubernetes_logo_without_workmark.svg/1200px-Kubernetes_logo_without_workmark.svg.png;" parent="1" vertex="1">
          <mxGeometry x="532.94" y="1135" width="72.03" height="70" as="geometry" />
        </mxCell>
        <mxCell id="LRw8RilUt3pYmWFIR5ii-111" value="&lt;h1 style=&quot;margin-top: 0px;&quot;&gt;DNS Resolution&lt;/h1&gt;&lt;div&gt;Everything that is inside the network should resolve DNS using Adguard.&amp;nbsp;&lt;br&gt;&lt;br&gt;Adguard holds all my configuration for DNS Rewrites, AD Blockers, ETC&lt;/div&gt;&lt;div&gt;&lt;br&gt;&lt;/div&gt;&lt;div&gt;Only disable this for VPN VLan, which access directly Cloudflare DNS to avoid Latency on DNS.&lt;/div&gt;&lt;div&gt;&lt;br&gt;&lt;/div&gt;&lt;div&gt;&lt;b&gt;Kubernetes&lt;/b&gt;&lt;/div&gt;&lt;div&gt;Kubernetes is configured as ClusterFirst resolution. This means that it will first try to resolve within the cluster and only then will try to go outside.&amp;nbsp;&lt;br&gt;&lt;br&gt;The configuration rely on /etc/resolv.conf file on each node.&amp;nbsp;&lt;/div&gt;&lt;div&gt;On ProxMox, I configured it to point directly to ADGuard IP Address, so all machines that are created within ProxMox will automatically target ADGuard as its primarry address.&amp;nbsp;&lt;br&gt;&lt;br&gt;On all VLan DHCP config, DNS Server is set to Adguard as well, so all machines should get AdGuard as its primary DNS server.&lt;/div&gt;&lt;div&gt;&lt;br&gt;&lt;/div&gt;&lt;div&gt;WAN DNS server is also pointing to AdGuard.&lt;/div&gt;" style="text;html=1;whiteSpace=wrap;overflow=hidden;rounded=0;" parent="1" vertex="1">
          <mxGeometry x="813.96" y="865" width="215" height="540" as="geometry" />
        </mxCell>
        <mxCell id="LRw8RilUt3pYmWFIR5ii-113" value="Ingress/Egress K8S" style="text;html=1;align=center;verticalAlign=middle;whiteSpace=wrap;rounded=0;" parent="1" vertex="1">
          <mxGeometry x="2050" y="690" width="60" height="30" as="geometry" />
        </mxCell>
        <mxCell id="LRw8RilUt3pYmWFIR5ii-177" style="edgeStyle=orthogonalEdgeStyle;rounded=0;orthogonalLoop=1;jettySize=auto;html=1;" parent="1" source="LRw8RilUt3pYmWFIR5ii-114" target="LRw8RilUt3pYmWFIR5ii-121" edge="1">
          <mxGeometry relative="1" as="geometry" />
        </mxCell>
        <mxCell id="LRw8RilUt3pYmWFIR5ii-114" value="Internal Vlans" style="ellipse;shape=cloud;whiteSpace=wrap;html=1;" parent="1" vertex="1">
          <mxGeometry x="1638.25" y="680" width="140" height="100" as="geometry" />
        </mxCell>
        <mxCell id="LRw8RilUt3pYmWFIR5ii-115" value="Cloudflare Tunnel (Reverse Proxy)" style="ellipse;shape=cloud;whiteSpace=wrap;html=1;" parent="1" vertex="1">
          <mxGeometry x="2710" y="675" width="140" height="100" as="geometry" />
        </mxCell>
        <mxCell id="LRw8RilUt3pYmWFIR5ii-116" value="" style="shape=image;verticalLabelPosition=bottom;labelBackgroundColor=default;verticalAlign=top;aspect=fixed;imageAspect=0;image=https://upload.wikimedia.org/wikipedia/commons/thumb/3/39/Kubernetes_logo_without_workmark.svg/1200px-Kubernetes_logo_without_workmark.svg.png;" parent="1" vertex="1">
          <mxGeometry x="1270" y="1055" width="72.03" height="70" as="geometry" />
        </mxCell>
        <mxCell id="LRw8RilUt3pYmWFIR5ii-166" style="edgeStyle=orthogonalEdgeStyle;rounded=0;orthogonalLoop=1;jettySize=auto;html=1;entryX=1;entryY=0.5;entryDx=0;entryDy=0;" parent="1" source="LRw8RilUt3pYmWFIR5ii-118" target="LRw8RilUt3pYmWFIR5ii-147" edge="1">
          <mxGeometry relative="1" as="geometry" />
        </mxCell>
        <mxCell id="LRw8RilUt3pYmWFIR5ii-169" style="edgeStyle=orthogonalEdgeStyle;rounded=0;orthogonalLoop=1;jettySize=auto;html=1;entryX=1;entryY=0.5;entryDx=0;entryDy=0;" parent="1" source="LRw8RilUt3pYmWFIR5ii-118" target="LRw8RilUt3pYmWFIR5ii-143" edge="1">
          <mxGeometry relative="1" as="geometry" />
        </mxCell>
        <mxCell id="LRw8RilUt3pYmWFIR5ii-170" style="edgeStyle=orthogonalEdgeStyle;rounded=0;orthogonalLoop=1;jettySize=auto;html=1;entryX=1;entryY=0.5;entryDx=0;entryDy=0;" parent="1" source="LRw8RilUt3pYmWFIR5ii-118" target="LRw8RilUt3pYmWFIR5ii-136" edge="1">
          <mxGeometry relative="1" as="geometry" />
        </mxCell>
        <mxCell id="LRw8RilUt3pYmWFIR5ii-118" value="CloudflareD" style="rounded=0;whiteSpace=wrap;html=1;" parent="1" vertex="1">
          <mxGeometry x="2700" y="1140" width="120" height="60" as="geometry" />
        </mxCell>
        <mxCell id="LRw8RilUt3pYmWFIR5ii-119" style="edgeStyle=orthogonalEdgeStyle;rounded=0;orthogonalLoop=1;jettySize=auto;html=1;entryX=0.55;entryY=0.95;entryDx=0;entryDy=0;entryPerimeter=0;" parent="1" source="LRw8RilUt3pYmWFIR5ii-182" target="LRw8RilUt3pYmWFIR5ii-115" edge="1">
          <mxGeometry relative="1" as="geometry" />
        </mxCell>
        <mxCell id="LRw8RilUt3pYmWFIR5ii-154" style="edgeStyle=orthogonalEdgeStyle;rounded=0;orthogonalLoop=1;jettySize=auto;html=1;entryX=0.5;entryY=0;entryDx=0;entryDy=0;" parent="1" source="LRw8RilUt3pYmWFIR5ii-121" target="LRw8RilUt3pYmWFIR5ii-152" edge="1">
          <mxGeometry relative="1" as="geometry" />
        </mxCell>
        <mxCell id="LRw8RilUt3pYmWFIR5ii-156" style="edgeStyle=orthogonalEdgeStyle;rounded=0;orthogonalLoop=1;jettySize=auto;html=1;entryX=0.5;entryY=0;entryDx=0;entryDy=0;" parent="1" source="LRw8RilUt3pYmWFIR5ii-121" target="LRw8RilUt3pYmWFIR5ii-127" edge="1">
          <mxGeometry relative="1" as="geometry" />
        </mxCell>
        <mxCell id="LRw8RilUt3pYmWFIR5ii-157" style="edgeStyle=orthogonalEdgeStyle;rounded=0;orthogonalLoop=1;jettySize=auto;html=1;" parent="1" source="LRw8RilUt3pYmWFIR5ii-121" target="LRw8RilUt3pYmWFIR5ii-128" edge="1">
          <mxGeometry relative="1" as="geometry" />
        </mxCell>
        <mxCell id="LRw8RilUt3pYmWFIR5ii-161" style="edgeStyle=orthogonalEdgeStyle;rounded=0;orthogonalLoop=1;jettySize=auto;html=1;" parent="1" source="LRw8RilUt3pYmWFIR5ii-121" target="LRw8RilUt3pYmWFIR5ii-139" edge="1">
          <mxGeometry relative="1" as="geometry" />
        </mxCell>
        <mxCell id="LRw8RilUt3pYmWFIR5ii-162" style="edgeStyle=orthogonalEdgeStyle;rounded=0;orthogonalLoop=1;jettySize=auto;html=1;" parent="1" source="LRw8RilUt3pYmWFIR5ii-121" target="LRw8RilUt3pYmWFIR5ii-141" edge="1">
          <mxGeometry relative="1" as="geometry" />
        </mxCell>
        <mxCell id="LRw8RilUt3pYmWFIR5ii-163" style="edgeStyle=orthogonalEdgeStyle;rounded=0;orthogonalLoop=1;jettySize=auto;html=1;entryX=0;entryY=0.75;entryDx=0;entryDy=0;" parent="1" source="LRw8RilUt3pYmWFIR5ii-121" target="LRw8RilUt3pYmWFIR5ii-147" edge="1">
          <mxGeometry relative="1" as="geometry" />
        </mxCell>
        <mxCell id="LRw8RilUt3pYmWFIR5ii-164" style="edgeStyle=orthogonalEdgeStyle;rounded=0;orthogonalLoop=1;jettySize=auto;html=1;entryX=0;entryY=0.5;entryDx=0;entryDy=0;" parent="1" source="LRw8RilUt3pYmWFIR5ii-121" target="LRw8RilUt3pYmWFIR5ii-143" edge="1">
          <mxGeometry relative="1" as="geometry" />
        </mxCell>
        <mxCell id="LRw8RilUt3pYmWFIR5ii-165" style="edgeStyle=orthogonalEdgeStyle;rounded=0;orthogonalLoop=1;jettySize=auto;html=1;entryX=0;entryY=0.5;entryDx=0;entryDy=0;" parent="1" source="LRw8RilUt3pYmWFIR5ii-121" target="LRw8RilUt3pYmWFIR5ii-136" edge="1">
          <mxGeometry relative="1" as="geometry" />
        </mxCell>
        <mxCell id="LRw8RilUt3pYmWFIR5ii-185" style="edgeStyle=orthogonalEdgeStyle;rounded=0;orthogonalLoop=1;jettySize=auto;html=1;" parent="1" source="LRw8RilUt3pYmWFIR5ii-121" target="LRw8RilUt3pYmWFIR5ii-184" edge="1">
          <mxGeometry relative="1" as="geometry" />
        </mxCell>
        <mxCell id="LRw8RilUt3pYmWFIR5ii-121" value="Ingres Nginx" style="rounded=0;whiteSpace=wrap;html=1;" parent="1" vertex="1">
          <mxGeometry x="1860" y="1010" width="229" height="60" as="geometry" />
        </mxCell>
        <mxCell id="LRw8RilUt3pYmWFIR5ii-127" value="Plex" style="rounded=0;whiteSpace=wrap;html=1;" parent="1" vertex="1">
          <mxGeometry x="1535" y="1345" width="120" height="60" as="geometry" />
        </mxCell>
        <mxCell id="LRw8RilUt3pYmWFIR5ii-128" value="Files (SFTP Server)" style="rounded=0;whiteSpace=wrap;html=1;" parent="1" vertex="1">
          <mxGeometry x="1682.5" y="1345" width="120" height="60" as="geometry" />
        </mxCell>
        <mxCell id="LRw8RilUt3pYmWFIR5ii-133" value="K8S Vlan&lt;div&gt;(LoadBalancers)&lt;/div&gt;" style="text;html=1;align=center;verticalAlign=middle;whiteSpace=wrap;rounded=0;" parent="1" vertex="1">
          <mxGeometry x="1400" y="890" width="60" height="30" as="geometry" />
        </mxCell>
        <mxCell id="LRw8RilUt3pYmWFIR5ii-136" value="Grafana" style="rounded=0;whiteSpace=wrap;html=1;" parent="1" vertex="1">
          <mxGeometry x="2450" y="1330" width="120" height="60" as="geometry" />
        </mxCell>
        <mxCell id="LRw8RilUt3pYmWFIR5ii-139" value="Duplicati" style="rounded=0;whiteSpace=wrap;html=1;" parent="1" vertex="1">
          <mxGeometry x="1980" y="1340" width="120" height="60" as="geometry" />
        </mxCell>
        <mxCell id="LRw8RilUt3pYmWFIR5ii-141" value="Home Assistant" style="rounded=0;whiteSpace=wrap;html=1;" parent="1" vertex="1">
          <mxGeometry x="2130" y="1340" width="120" height="60" as="geometry" />
        </mxCell>
        <mxCell id="LRw8RilUt3pYmWFIR5ii-143" value="Audiobook" style="rounded=0;whiteSpace=wrap;html=1;" parent="1" vertex="1">
          <mxGeometry x="2450" y="1240" width="120" height="60" as="geometry" />
        </mxCell>
        <mxCell id="LRw8RilUt3pYmWFIR5ii-145" value="BSK" style="rounded=0;whiteSpace=wrap;html=1;" parent="1" vertex="1">
          <mxGeometry x="2450" y="1160" width="120" height="60" as="geometry" />
        </mxCell>
        <mxCell id="LRw8RilUt3pYmWFIR5ii-147" value="Immich" style="rounded=0;whiteSpace=wrap;html=1;" parent="1" vertex="1">
          <mxGeometry x="2450" y="1080" width="120" height="60" as="geometry" />
        </mxCell>
        <mxCell id="LRw8RilUt3pYmWFIR5ii-152" value="PGAdmin" style="rounded=0;whiteSpace=wrap;html=1;" parent="1" vertex="1">
          <mxGeometry x="1830" y="1345" width="120" height="60" as="geometry" />
        </mxCell>
        <mxCell id="LRw8RilUt3pYmWFIR5ii-167" style="edgeStyle=orthogonalEdgeStyle;rounded=0;orthogonalLoop=1;jettySize=auto;html=1;exitX=0.5;exitY=1;exitDx=0;exitDy=0;" parent="1" source="LRw8RilUt3pYmWFIR5ii-118" target="LRw8RilUt3pYmWFIR5ii-118" edge="1">
          <mxGeometry relative="1" as="geometry" />
        </mxCell>
        <mxCell id="LRw8RilUt3pYmWFIR5ii-168" style="edgeStyle=orthogonalEdgeStyle;rounded=0;orthogonalLoop=1;jettySize=auto;html=1;entryX=1.006;entryY=0.631;entryDx=0;entryDy=0;entryPerimeter=0;" parent="1" source="LRw8RilUt3pYmWFIR5ii-118" target="LRw8RilUt3pYmWFIR5ii-145" edge="1">
          <mxGeometry relative="1" as="geometry" />
        </mxCell>
        <mxCell id="LRw8RilUt3pYmWFIR5ii-176" style="edgeStyle=orthogonalEdgeStyle;rounded=0;orthogonalLoop=1;jettySize=auto;html=1;entryX=0.25;entryY=0;entryDx=0;entryDy=0;fillColor=#f8cecc;strokeColor=#b85450;" parent="1" source="LRw8RilUt3pYmWFIR5ii-173" target="LRw8RilUt3pYmWFIR5ii-141" edge="1">
          <mxGeometry relative="1" as="geometry" />
        </mxCell>
        <mxCell id="LRw8RilUt3pYmWFIR5ii-173" value="MDNS" style="rounded=0;whiteSpace=wrap;html=1;" parent="1" vertex="1">
          <mxGeometry x="2124" y="960" width="106.5" height="60" as="geometry" />
        </mxCell>
        <mxCell id="LRw8RilUt3pYmWFIR5ii-174" value="FTP" style="rounded=0;whiteSpace=wrap;html=1;" parent="1" vertex="1">
          <mxGeometry x="1655" y="960" width="106.5" height="60" as="geometry" />
        </mxCell>
        <mxCell id="LRw8RilUt3pYmWFIR5ii-175" style="edgeStyle=orthogonalEdgeStyle;rounded=0;orthogonalLoop=1;jettySize=auto;html=1;entryX=0.124;entryY=0.071;entryDx=0;entryDy=0;entryPerimeter=0;fillColor=#f8cecc;strokeColor=#b85450;" parent="1" source="LRw8RilUt3pYmWFIR5ii-174" target="LRw8RilUt3pYmWFIR5ii-128" edge="1">
          <mxGeometry relative="1" as="geometry" />
        </mxCell>
        <mxCell id="LRw8RilUt3pYmWFIR5ii-179" value="&lt;font style=&quot;font-size: 27px;&quot;&gt;Infrastructure&amp;nbsp; Overview&lt;/font&gt;" style="text;html=1;align=center;verticalAlign=middle;whiteSpace=wrap;rounded=0;" parent="1" vertex="1">
          <mxGeometry x="1279.48" y="-800" width="321.04" height="30" as="geometry" />
        </mxCell>
        <mxCell id="LRw8RilUt3pYmWFIR5ii-180" value="&lt;h1 style=&quot;margin-top: 0px;&quot;&gt;Ingress Controller&lt;/h1&gt;&lt;div&gt;Acts as an interface for my Vlans With TLS termination and firewall configuration&amp;nbsp;&lt;/div&gt;&lt;div&gt;&lt;br&gt;&lt;/div&gt;&lt;div&gt;&lt;h1 style=&quot;margin-top: 0px;&quot;&gt;CloudflareD&lt;/h1&gt;&lt;/div&gt;&lt;div&gt;Only Way to access my internal Network from the internet. Everything else is disabled (upnp***).&amp;nbsp;&lt;/div&gt;" style="text;html=1;whiteSpace=wrap;overflow=hidden;rounded=0;" parent="1" vertex="1">
          <mxGeometry x="2210" y="690" width="460" height="180" as="geometry" />
        </mxCell>
        <mxCell id="LRw8RilUt3pYmWFIR5ii-183" value="" style="edgeStyle=orthogonalEdgeStyle;rounded=0;orthogonalLoop=1;jettySize=auto;html=1;entryX=0.55;entryY=0.95;entryDx=0;entryDy=0;entryPerimeter=0;" parent="1" source="LRw8RilUt3pYmWFIR5ii-118" target="LRw8RilUt3pYmWFIR5ii-182" edge="1">
          <mxGeometry relative="1" as="geometry">
            <mxPoint x="2760" y="1140" as="sourcePoint" />
            <mxPoint x="2787" y="770" as="targetPoint" />
          </mxGeometry>
        </mxCell>
        <mxCell id="LRw8RilUt3pYmWFIR5ii-182" value="" style="image;html=1;image=img/lib/clip_art/networking/Firewall_02_128x128.png" parent="1" vertex="1">
          <mxGeometry x="2740" y="840" width="80" height="80" as="geometry" />
        </mxCell>
        <mxCell id="LRw8RilUt3pYmWFIR5ii-184" value="Hubble" style="rounded=0;whiteSpace=wrap;html=1;" parent="1" vertex="1">
          <mxGeometry x="1918.66" y="1285" width="100" height="40" as="geometry" />
        </mxCell>
        <mxCell id="LRw8RilUt3pYmWFIR5ii-186" value="&lt;h1 style=&quot;margin-top: 0px;&quot;&gt;Extra LBs&lt;/h1&gt;&lt;div&gt;To be able to handle other protocols (UDP Multicast, Unicast or FTP) Was needed to create different interfaces for it.&amp;nbsp;&lt;br&gt;The easiest way was to create a loadBalancer resource that resides inside the CIDR 192.168.50.230/28. This way, we achieve network awareness while alongside ARP configuration on Cilium CNI&lt;/div&gt;" style="text;html=1;whiteSpace=wrap;overflow=hidden;rounded=0;" parent="1" vertex="1">
          <mxGeometry x="1260" y="685" width="360" height="180" as="geometry" />
        </mxCell>
      </root>
    </mxGraphModel>
  </diagram>
</mxfile>
